<?xml version="1.0" encoding="UTF-8"?>
<svg width="455.01" height="181.93" version="1.1" viewBox="383 238 455.01 181.93" xmlns="http://www.w3.org/2000/svg">
 <metadata>Produced by OmniGraffle 7.18.6\n2022-03-02 07:53:29 +0000</metadata>
 <g transform="translate(-11.652 -70.883)" fill="none">
  <title>Canvas 1</title>
  <g>
   <title>Layer 1</title>
   <g transform="translate(383 238.5)" fill="#3661af" aria-label="OFA">
    <path d="m165.34 156.97q0-26.958-16.455-43.412-16.338-16.571-43.295-16.571-13.304 0-25.44 5.0181-12.02 5.0181-20.889 14.354-10.27 10.503-15.638 23.923t-5.3682 28.125q0 26.724 16.104 43.412 16.221 16.571 42.128 16.571 29.292 0 49.014-20.422 19.839-20.539 19.839-50.998zm-58.35-83.907q38.978 0 62.084 22.756 23.106 22.64 23.106 60.684 0 20.422-7.5854 38.511-7.4688 17.972-21.356 31.275-13.42 12.604-31.042 19.372-17.622 6.6518-37.577 6.6518-37.227 0-60.1-22.873-22.873-22.873-22.873-60.1 0-20.772 7.3521-38.861 7.3521-18.205 21.123-31.392 13.07-12.487 30.458-19.255 17.388-6.7686 36.41-6.7686z"/>
    <path d="m211.79 248 22.406-170.85h95.81l-3.0342 24.157h-69.319l-5.4849 42.945h69.086l-3.1509 23.923h-69.319l-10.27 79.822z"/>
    <path d="m305.27 248 98.961-177.62 62.434 177.62h-27.774l-13.887-40.378h-68.036l-22.523 40.378zm62.434-63.134h49.947l-13.187-42.245q-0.9336-3.0342-1.9839-8.0522t-2.5674-13.187q-2.5674 6.0684-5.1348 11.553-2.4507 5.3682-4.9014 10.153z"/>
   </g>
  </g>
 </g>
</svg>
